<svg xmlns="http://www.w3.org/2000/svg" width="1200" height="900"><polygon points="0,89.28571428571429 400,89.28571428571429 400,196.42857142857144 0,196.42857142857144" fill="rgba(0, 0, 255, 255)" stroke="none" stroke-width="0" /><line x1="0" y1="89.28571428571429" x2="400" y2="89.28571428571429" stroke="rgba(0, 0, 0, 255)" stroke-width="2" /><line x1="400" y1="89.28571428571429" x2="400" y2="196.42857142857144" stroke="rgba(0, 0, 0, 255)" stroke-width="2" /><line x1="400" y1="196.42857142857144" x2="0" y2="196.42857142857144" stroke="rgba(0, 0, 0, 255)" stroke-width="2" /><line x1="0" y1="196.42857142857144" x2="0" y2="89.28571428571429" stroke="rgba(0, 0, 0, 255)" stroke-width="2" /><polygon points="80,0 280,0 280,89.28571428571429 80,89.28571428571429" fill="rgba(0, 0, 139, 255)" stroke="none" stroke-width="0" /><line x1="80" y1="0" x2="280" y2="0" stroke="rgba(0, 0, 0, 255)" stroke-width="2" /><line x1="280" y1="0" x2="280" y2="89.28571428571429" stroke="rgba(0, 0, 0, 255)" stroke-width="2" /><line x1="280" y1="89.28571428571429" x2="80" y2="89.28571428571429" stroke="rgba(0, 0, 0, 255)" stroke-width="2" /><line x1="80" y1="89.28571428571429" x2="80" y2="0" stroke="rgba(0, 0, 0, 255)" stroke-width="2" /><polygon points="120,0 20,89.28571428571429 220,89.28571428571429" fill="rgba(0, 0, 139, 255)" stroke="none" stroke-width="0" /><polygon points="260,0 160,89.28571428571429 360,89.28571428571429" fill="rgba(0, 0, 139, 255)" stroke="none" stroke-width="0" /><ellipse cx="80" cy="250" rx="40" ry="71.42857142857143" fill="rgba(0, 0, 0, 255)" stroke="none" stroke-width="0" /><ellipse cx="80" cy="250" rx="40" ry="71.42857142857143" stroke="rgba(0, 0, 0, 255)" stroke-width="2" fill="none" /><ellipse cx="360" cy="250" rx="40" ry="71.42857142857143" fill="rgba(0, 0, 0, 255)" stroke="none" stroke-width="0" /><ellipse cx="360" cy="250" rx="40" ry="71.42857142857143" stroke="rgba(0, 0, 0, 255)" stroke-width="2" fill="none" /><polygon points="80,17.857142857142858 160,17.857142857142858 160,71.42857142857143 80,71.42857142857143" fill="rgba(211, 211, 211, 255)" stroke="none" stroke-width="0" /><line x1="80" y1="17.857142857142858" x2="160" y2="17.857142857142858" stroke="rgba(0, 0, 0, 255)" stroke-width="2" /><line x1="160" y1="17.857142857142858" x2="160" y2="71.42857142857143" stroke="rgba(0, 0, 0, 255)" stroke-width="2" /><line x1="160" y1="71.42857142857143" x2="80" y2="71.42857142857143" stroke="rgba(0, 0, 0, 255)" stroke-width="2" /><line x1="80" y1="71.42857142857143" x2="80" y2="17.857142857142858" stroke="rgba(0, 0, 0, 255)" stroke-width="2" /><polygon points="200,17.857142857142858 280,17.857142857142858 280,71.42857142857143 200,71.42857142857143" fill="rgba(211, 211, 211, 255)" stroke="none" stroke-width="0" /><line x1="200" y1="17.857142857142858" x2="280" y2="17.857142857142858" stroke="rgba(0, 0, 0, 255)" stroke-width="2" /><line x1="280" y1="17.857142857142858" x2="280" y2="71.42857142857143" stroke="rgba(0, 0, 0, 255)" stroke-width="2" /><line x1="280" y1="71.42857142857143" x2="200" y2="71.42857142857143" stroke="rgba(0, 0, 0, 255)" stroke-width="2" /><line x1="200" y1="71.42857142857143" x2="200" y2="17.857142857142858" stroke="rgba(0, 0, 0, 255)" stroke-width="2" /><ellipse cx="80" cy="142.85714285714283" rx="20" ry="8.928571428571429" fill="rgba(255, 255, 0, 255)" stroke="none" stroke-width="0" /><ellipse cx="80" cy="142.85714285714283" rx="20" ry="8.928571428571429" stroke="rgba(0, 0, 0, 255)" stroke-width="2" fill="none" /><ellipse cx="340" cy="142.85714285714283" rx="20" ry="8.928571428571429" fill="rgba(255, 255, 0, 255)" stroke="none" stroke-width="0" /><ellipse cx="340" cy="142.85714285714283" rx="20" ry="8.928571428571429" stroke="rgba(0, 0, 0, 255)" stroke-width="2" fill="none" /><ellipse cx="600" cy="-50" rx="50" ry="50" fill="rgba(255, 255, 0, 255)" stroke="none" stroke-width="0" /><ellipse cx="600" cy="-50" rx="50" ry="50" stroke="rgba(0, 0, 0, 255)" stroke-width="2" fill="none" /></svg>